# xmcd
#
# Track frame offsets:
# 182
# 32817
# 60527
# 100987
# 110092
# 139835
# 165287
# 179480
# 183322
#
# Disc length: 2745 seconds
#
# Revision: 0
# Processed by: cddbd v1.4PL0 Copyright (c) Steve Scherf et al.
# Submitted via: Audion 3.0.2 (http://www.panic.com/audion/)
#
DISCID=780ab709
DTITLE=Albert King - Rainin' in California
DYEAR=1900
DGENRE=
TTITLE0=King's Groove
TTITLE1=I Wonder Why
TTITLE2=The Sky Is Crying
TTITLE3=Albert's Stomp
TTITLE4=I'll Play The Blues For You
TTITLE5=Cold Women With Warm Hearts
TTITLE6=Kansas City
TTITLE7=Tighten Up
TTITLE8=Rainin' In California
EXTD=
EXTT0=
EXTT1=
EXTT2=
EXTT3=
EXTT4=
EXTT5=
EXTT6=
EXTT7=
EXTT8=
PLAYORDER=
